<?xml version="1.0" standalone="no"?>
<!DOCTYPE svg PUBLIC "-//W3C//DTD SVG 20010904//EN"
 "http://www.w3.org/TR/2001/REC-SVG-20010904/DTD/svg10.dtd">
<svg version="1.0" xmlns="http://www.w3.org/2000/svg"
 width="260.000000pt" height="260.000000pt" viewBox="0 0 260.000000 260.000000"
 preserveAspectRatio="xMidYMid meet">
<metadata>
Created by potrace 1.14, written by Peter Selinger 2001-2017
</metadata>
<g transform="translate(0.000000,260.000000) scale(0.100000,-0.100000)"
fill="#000000" stroke="none">
<path d="M485 2396 c-182 -30 -297 -78 -360 -148 -78 -87 -75 -48 -75 -948 0
-857 0 -849 52 -926 61 -90 140 -110 289 -73 83 21 117 24 289 23 179 0 203
-3 294 -27 55 -15 138 -46 185 -69 72 -37 93 -43 145 -43 50 0 71 6 116 32 78
45 219 90 325 104 128 17 357 6 465 -21 144 -37 228 -15 288 74 52 77 52 69
52 926 0 904 3 866 -77 951 -136 145 -557 203 -866 118 -89 -25 -201 -78 -261
-124 l-46 -35 -47 37 c-67 50 -178 100 -292 130 -119 31 -350 40 -476 19z
m1702 -280 c59 -14 78 -24 103 -52 l30 -35 0 -685 c0 -756 3 -720 -62 -758
-27 -17 -35 -17 -150 0 -84 12 -151 15 -222 11 -166 -10 -377 -73 -518 -156
l-68 -40 0 769 0 769 28 19 c85 61 261 131 407 162 113 25 339 22 452 -4z
m-1434 -422 c74 -38 110 -92 110 -169 -1 -68 -27 -129 -76 -170 -68 -58 -149
-59 -214 -2 -92 81 -102 229 -21 304 54 51 142 67 201 37z m109 -482 c79 -38
149 -111 172 -179 20 -59 20 -82 -1 -105 -15 -17 -39 -18 -351 -18 -298 0
-337 2 -354 17 -50 45 24 199 128 264 70 43 142 59 244 56 83 -3 103 -7 162
-35z"/>
<path d="M1920 1614 c-96 -93 -99 -117 -19 -200 l40 -40 -29 -40 c-33 -46 -94
-101 -129 -117 -21 -9 -28 -6 -71 36 -69 68 -87 65 -179 -26 -95 -96 -96 -106
-5 -197 82 -82 112 -92 206 -66 236 66 456 312 460 514 l1 53 -76 74 c-99 97
-108 97 -199 9z"/>
</g>
</svg>
